<svg width="13" height="13" viewBox="0 0 13 13" fill="none" xmlns="http://www.w3.org/2000/svg">
<path d="M7.32662 6.48725L11.9897 1.8366C12.0819 1.72928 12.13 1.59123 12.1246 1.45004C12.1191 1.30885 12.0604 1.17492 11.9602 1.07501C11.8601 0.975101 11.7258 0.916571 11.5842 0.911117C11.4426 0.905663 11.3042 0.953688 11.1966 1.04559L6.53349 5.69625L1.87037 1.03998C1.76445 0.934347 1.62079 0.875 1.47099 0.875C1.3212 0.875 1.17754 0.934347 1.07162 1.03998C0.965697 1.14562 0.906192 1.2889 0.906192 1.43829C0.906192 1.58769 0.965697 1.73096 1.07162 1.8366L5.74037 6.48725L1.07162 11.1379C1.01273 11.1882 0.964911 11.2501 0.931148 11.3197C0.897385 11.3893 0.878411 11.4651 0.875419 11.5424C0.872427 11.6196 0.88548 11.6967 0.913759 11.7686C0.942039 11.8406 0.984934 11.906 1.03975 11.9607C1.09457 12.0154 1.16013 12.0581 1.23231 12.0863C1.30449 12.1145 1.38174 12.1276 1.45921 12.1246C1.53668 12.1216 1.61269 12.1027 1.68248 12.069C1.75226 12.0353 1.81432 11.9876 1.86474 11.9289L6.53349 7.27825L11.1966 11.9289C11.3042 12.0208 11.4426 12.0688 11.5842 12.0634C11.7258 12.0579 11.8601 11.9994 11.9602 11.8995C12.0604 11.7996 12.1191 11.6656 12.1246 11.5245C12.13 11.3833 12.0819 11.2452 11.9897 11.1379L7.32662 6.48725Z" fill="#000000" stroke="#000000" stroke-width="0.6"/>
</svg>
